<?xml version="1.0" encoding="UTF-8"?>
<svg id="Layer_1" data-name="Layer 1" xmlns="http://www.w3.org/2000/svg" viewBox="0 0 499.82 113.76">
  <defs>
    <style>
      .cls-1 {
        fill: #1f2f5f;
      }
    </style>
  </defs>
  <g id="layer1">
    <g id="g844">
      <path id="path833" class="cls-1" d="M339.97,39.23l1.56-11.58h-3.63l.17-1.56h9.5l-.17,1.56h-3.63l-1.56,11.58h-2.25ZM354.83,39.23l.86-6.74v-.35c0-.52-.35-1.04-1.73-1.04-1.9,0-2.42.69-2.59,1.38l-.86,6.74h-1.9l1.9-13.13h1.9l-.69,5.18c.86-1.04,2.25-1.38,3.63-1.38,2.07,0,2.59.69,2.59,1.73v.52l-1.04,7.09h-2.07ZM362.61,34.91c0,.52-.17.86-.17,1.38,0,1.21.52,1.73,1.9,1.73s2.42-.52,2.59-1.9h1.73c-.35,2.07-1.21,3.11-4.49,3.11s-3.63-1.21-3.63-2.94c0-.69,0-1.21.17-1.9.35-2.76.86-4.67,4.84-4.67,2.94,0,3.63,1.04,3.63,2.76,0,.69,0,1.21-.17,1.9v.52h-6.39ZM367.28,34.04c0-.35.17-.69.17-1.04,0-1.21-.52-1.73-2.07-1.73-1.9,0-2.42,1.04-2.76,2.76h4.67ZM386.8,39.23l-4.84-11.41c0,.52-.17,1.38-.52,3.8l-1.04,7.6h-1.9l1.9-13.13h2.94l4.49,10.89c0-.52.17-1.9.35-3.63l1.04-7.26h1.9l-1.9,13.13h-2.42ZM395.44,34.91c0,.52-.17.86-.17,1.38,0,1.21.52,1.73,1.9,1.73s2.42-.52,2.59-1.9h1.73c-.35,2.07-1.21,3.11-4.49,3.11-2.94,0-3.63-1.21-3.63-2.94,0-.69,0-1.21.17-1.9.35-2.76.86-4.67,4.84-4.67,2.94,0,3.63,1.04,3.63,2.76,0,.69,0,1.21-.17,1.9v.52h-6.39ZM400.11,34.04c0-.35.17-.69.17-1.04,0-1.21-.52-1.73-2.07-1.73-1.9,0-2.42,1.04-2.76,2.76h4.67ZM411.52,39.23l-.69-7.6-2.94,7.6h-2.25l-.86-9.16h1.9l.35,7.78,2.76-7.78h2.42l.52,7.78,2.59-7.78h1.9l-3.46,9.16h-2.25ZM424.99,39.23l.17-1.73,8.64-9.85h-6.91l.17-1.56h9.33l-.17,1.56-8.64,10.02h7.43l-.17,1.56h-9.85ZM440.03,34.91c0,.52-.17.86-.17,1.38,0,1.21.52,1.73,2.07,1.73s2.42-.52,2.59-1.9h1.73c-.35,2.07-1.21,3.11-4.49,3.11-2.94,0-3.63-1.21-3.63-2.94,0-.69,0-1.21.17-1.9.35-2.76.86-4.67,4.84-4.67,2.94,0,3.63,1.04,3.63,2.76,0,.69,0,1.21-.17,1.9v.52h-6.57ZM444.87,34.04c0-.35.17-.69.17-1.04,0-1.21-.52-1.73-2.07-1.73-2.07,0-2.42,1.04-2.76,2.76h4.67ZM455.58,39.23v-1.21c-.86,1.04-2.07,1.38-3.46,1.38-1.9,0-2.76-.52-2.76-2.07,0-2.76,1.21-3.8,3.8-3.8,1.04,0,1.9.17,2.76.69l.17-1.21v-.69c0-1.04-.69-1.21-1.9-1.21s-1.9,0-2.07,1.56h-1.73c.35-2.59,2.25-2.76,4.32-2.76s3.46.35,3.46,2.25v.69l-.69,4.84v1.56s-1.9,0-1.9,0ZM455.93,35.08c-.69-.35-1.38-.52-2.25-.52-1.56,0-2.07.35-2.42,1.73h0v.52c0,.86.52,1.21,1.73,1.21,1.04,0,1.9-.35,2.59-1.04l.35-1.9ZM461.11,39.23l1.73-13.13h1.9l-1.9,13.13h-1.73ZM472.86,39.23v-1.21c-.86,1.04-2.07,1.38-3.46,1.38-1.9,0-2.76-.52-2.76-2.07,0-2.76,1.21-3.8,3.8-3.8,1.04,0,1.9.17,2.76.69l.17-1.21v-.69c0-1.04-.69-1.21-1.9-1.21s-1.9,0-2.07,1.56h-1.73c.35-2.59,2.25-2.76,4.32-2.76s3.46.35,3.46,2.25v.69l-.69,4.84v1.56s-1.9,0-1.9,0ZM473.21,35.08c-.69-.35-1.38-.52-2.25-.52-1.56,0-2.07.35-2.42,1.73h0v.52c0,.86.52,1.21,1.73,1.21,1.04,0,1.9-.35,2.59-1.04l.35-1.9ZM484.44,39.23l.86-6.74v-.35c0-.52-.35-1.04-1.73-1.04-1.9,0-2.42.69-2.59,1.38l-.86,6.74h-1.9l1.21-9.16h1.9l-.17,1.21c.86-1.04,2.25-1.38,3.46-1.38,2.07,0,2.59.69,2.59,1.73v.52l-1.04,7.09h-1.73ZM496.19,39.23l.17-1.21c-.69,1.04-2.07,1.56-3.28,1.38-2.25,0-2.76-1.04-2.76-2.59,0-.69.17-1.56.17-2.25.35-2.59.69-4.49,3.8-4.49,1.21-.17,2.25.52,2.94,1.38l.69-5.18h1.9l-1.9,13.13-1.73-.17ZM496.71,33.7v-.86c0-1.04-.52-1.56-1.9-1.56-2.07,0-2.42,1.04-2.59,3.46-.17.52-.17,1.21-.17,1.73,0,1.04.35,1.73,1.9,1.73,1.21.17,2.42-.69,2.42-1.9h0l.35-2.59ZM345.33,58.41l-4.84-11.41c0,.52-.17,1.38-.52,3.8l-1.04,7.6h-1.9l1.9-13.13h3.11l4.49,10.89c0-.52.17-2.07.35-3.63l1.04-7.26h1.9l-1.9,13.13h-2.59ZM357.94,58.41v-1.21c-.86,1.04-2.07,1.38-3.46,1.38-1.9,0-2.76-.52-2.76-2.07,0-2.76,1.21-3.8,3.8-3.8,1.04,0,1.9.17,2.76.69l.17-1.21v-.69c0-1.04-.69-1.21-1.9-1.21s-1.9,0-2.07,1.56h-1.73c.35-2.76,2.25-2.76,4.32-2.76s3.46.35,3.46,2.25v.69l-.69,4.84v1.38l-1.9.17ZM358.29,54.26c-.69-.35-1.38-.52-2.25-.52-1.56,0-2.07.35-2.42,1.73v.69c0,.86.52,1.21,1.73,1.21,1.04,0,1.9-.35,2.59-1.04l.35-2.07ZM368.14,58.41c-.52.17-.86.17-1.38.17-1.9,0-2.42-.69-2.42-1.56v-.69l.86-5.88h-1.38l.17-1.21h1.38l.35-3.11h1.9l-.35,3.11h2.25l-.17,1.21h-2.25l-.86,5.7v.35c0,.52.17.86,1.04.86.35,0,.69,0,1.04-.17l-.17,1.21ZM371.77,58.41l1.21-9.16h1.9l-1.21,9.16h-1.9ZM373.15,47.35l.35-2.07h1.9l-.35,2.07h-1.9ZM377.82,55.47c0-.52,0-1.21.17-1.73.35-2.76,1.04-4.67,4.84-4.67,2.94,0,3.63,1.21,3.63,2.94,0,.52,0,1.21-.17,1.73-.35,2.94-1.04,4.84-5.01,4.84-2.59,0-3.46-1.21-3.46-3.11h0ZM384.56,53.74c0-.52.17-1.04.17-1.56,0-1.21-.52-1.9-1.9-1.9-2.07,0-2.42,1.21-2.76,3.46,0,.52-.17,1.04-.17,1.56,0,1.21.52,1.9,1.9,1.9,2.07,0,2.42-1.04,2.76-3.46ZM395.79,58.41l.86-6.57v-.35c0-.52-.35-1.04-1.73-1.04-1.9,0-2.42.86-2.59,1.38l-.86,6.74h-1.9l1.21-9.16h1.9l-.17,1.21c.86-1.04,2.25-1.38,3.63-1.38,2.07,0,2.59.69,2.59,1.73v.52l-1.04,7.09-1.9-.17ZM407.89,58.41v-1.21c-.86,1.04-2.07,1.38-3.46,1.38-1.9,0-2.76-.52-2.76-2.07,0-2.76,1.21-3.8,3.8-3.8,1.04,0,1.9.17,2.76.69l.17-1.21v-.69c0-1.04-.69-1.21-1.9-1.21s-1.9,0-2.07,1.56h-1.73c.35-2.76,2.25-2.76,4.32-2.76s3.46.35,3.46,2.25v.69l-.69,4.84v1.38l-1.9.17ZM408.06,54.26c-.69-.35-1.38-.52-2.25-.52-1.56,0-2.07.35-2.42,1.73v.69c0,.86.52,1.21,1.73,1.21,1.04,0,1.9-.35,2.59-1.04l.35-2.07ZM413.42,58.41l1.9-13.13h1.9l-1.9,13.13h-1.9ZM434.84,49.08c.17-.35.17-.69.17-1.04,0-1.38-1.21-1.56-2.59-1.56-1.73,0-3.11.35-3.11,2.42,0,1.56,1.73,1.73,3.28,1.9,2.25.35,3.63.86,3.63,2.94v.86c-.35,3.11-2.59,3.8-5.36,3.8-2.25,0-4.49-.35-4.49-2.76,0-.52.17-1.21.17-1.73h1.9c-.17.35-.17.86-.17,1.21,0,1.38,1.04,1.73,2.42,1.73,1.9,0,3.46-.35,3.46-2.76,0-.69-.35-1.21-1.04-1.38-2.25-.86-5.88-.35-5.88-3.28v-1.04c.35-2.94,2.59-3.46,5.36-3.46,2.07,0,4.32.35,4.32,2.59,0,.52-.17,1.04-.17,1.56h-1.9ZM441.58,54.09c0,.52-.17.86-.17,1.38,0,1.21.52,1.73,2.07,1.73s2.42-.52,2.59-1.9h1.73c-.35,2.07-1.21,3.11-4.49,3.11s-3.63-1.21-3.63-2.94c0-.69,0-1.21.17-1.9.35-2.76.86-4.67,4.84-4.67,2.94,0,3.63,1.04,3.63,2.76,0,.69,0,1.21-.17,1.9v.52h-6.57ZM446.25,53.05c0-.35.17-.69.17-1.04,0-1.21-.52-1.73-2.07-1.73-1.9,0-2.42,1.04-2.76,2.76h4.67ZM451.26,58.41l1.21-9.16h1.9l-1.21,9.16h-1.9ZM452.82,47.35l.35-2.07h1.9l-.35,2.07h-1.9ZM463.36,51.84c0-.17.17-.35.17-.69,0-.86-.86-1.04-1.56-1.04-1.9,0-2.25.52-2.25,1.73s1.21,1.04,2.25,1.21c1.56.17,3.11.35,3.11,2.25v.52c-.35,2.42-2.25,2.76-4.15,2.76-1.56,0-3.63-.17-3.63-2.07v-.35l.17-.52h1.73c0,.17-.17.52,0,.69,0,1.04.86,1.21,1.9,1.21s2.25-.17,2.25-1.73c0-1.04-.86-1.04-2.07-1.21-1.73-.17-3.28-.35-3.28-2.25v-.52c.35-1.9,1.56-2.59,4.15-2.59,1.9,0,3.28.17,3.28,1.73v.35l-.17.52h-1.9ZM479.08,58.41l.86-6.74v-.35c0-.52-.35-1.04-1.56-1.04-.86-.17-1.9.52-2.25,1.38l-.86,6.74h-1.73l.86-6.74v-.35c0-.52-.35-1.04-1.56-1.04s-1.9.17-2.25,1.38l-.86,6.57h-1.9l1.21-9.16h1.9l-.17,1.21c.86-.86,1.9-1.38,3.11-1.38,1.73,0,2.25.52,2.25,1.38.86-.86,1.9-1.38,3.11-1.38,1.73,0,2.25.52,2.25,1.56v.69l-1.04,7.09-1.38.17ZM484.96,58.41l1.21-9.16h1.9l-1.21,9.16h-1.9ZM486.52,47.35l.35-2.07h1.9l-.35,2.07h-1.9ZM499.13,55.3c-.35,2.07-1.04,3.28-4.32,3.28-2.94,0-3.63-1.21-3.63-2.94,0-.69,0-1.21.17-1.9.35-2.76.86-4.67,4.84-4.67,2.76,0,3.46.69,3.46,2.25v1.04h-1.73v-.52c0-1.04-.52-1.38-1.9-1.38-2.25,0-2.42,1.04-2.76,3.46-.17.52-.17,1.21-.17,1.73,0,1.21.35,1.73,1.9,1.73s2.07-.35,2.42-2.07h1.73ZM345.67,76.9l.86-6.05h-6.57l-.86,6.05h-2.07l1.9-13.13h2.07l-.69,5.53h6.57l.69-5.53h2.07l-1.9,13.13h-2.07ZM360.36,76.9v-1.21c-.86,1.04-2.07,1.38-3.46,1.38-1.9,0-2.76-.52-2.76-2.07,0-2.76,1.21-3.8,3.8-3.8,1.04,0,1.9.17,2.76.69l.17-1.21v-.69c0-1.04-.69-1.21-1.9-1.21s-1.9,0-2.07,1.56h-1.73c.35-2.76,2.25-2.76,4.32-2.76s3.46.35,3.46,2.25v.69l-.69,4.84c0,.35,0,.69-.17.86v.52l-1.73.17ZM360.54,72.75c-.69-.35-1.38-.52-2.25-.52-1.56,0-2.07.35-2.42,1.73v.69c0,.86.52,1.21,1.73,1.21,1.04,0,1.9-.35,2.59-1.04l.35-2.07ZM367.79,76.9l.17-1.38,6.05-6.57h-5.01l.17-1.21h6.91l-.17,1.21-6.05,6.74h5.18l-.17,1.21h-7.09,0ZM387.15,76.9v-1.21c-.86,1.04-2.07,1.38-3.46,1.38-1.9,0-2.76-.52-2.76-2.07,0-2.76,1.21-3.8,3.8-3.8,1.04,0,1.9.17,2.76.69l.17-1.21v-.69c0-1.04-.69-1.21-1.9-1.21s-1.9,0-2.07,1.56h-1.73c.35-2.76,2.25-2.76,4.32-2.76s3.46.35,3.46,2.25v.69l-.69,4.84v1.38l-1.9.17ZM387.49,72.75c-.69-.35-1.38-.52-2.25-.52-1.56,0-2.07.35-2.42,1.73v.69c0,.86.52,1.21,1.73,1.21,1.04,0,1.9-.35,2.59-1.04l.35-2.07ZM395.1,76.9l1.21-9.16h1.9l-.17,1.21c1.04-1.21,2.76-1.73,4.32-1.38l-.17,1.56c-.35-.17-.86-.17-1.21-.17-1.21-.17-2.59.52-3.11,1.73l-.69,6.22h-2.07ZM412.72,76.9l.17-1.21c-.69,1.04-2.07,1.56-3.28,1.38-2.25,0-2.76-1.04-2.76-2.59,0-.69.17-1.56.17-2.25.35-2.59.69-4.49,3.8-4.49,1.21-.17,2.25.52,2.94,1.38l.69-5.18h1.9l-1.9,13.13-1.73-.17ZM413.42,71.37v-.86c0-1.04-.52-1.73-1.9-1.73-2.07,0-2.42,1.04-2.59,3.46-.17.52-.17,1.21-.17,1.73,0,1.21.35,1.73,1.9,1.73,1.21.17,2.42-.69,2.42-1.9h0l.35-2.42ZM442.1,76.9l1.21-8.12c.17-1.73.35-2.59.52-3.8l-5.88,11.92h-2.07l-2.42-11.92c-.17,1.38-.17,2.25-.52,3.97l-1.04,7.95h-1.9l1.9-13.13h3.28l1.56,7.78c.35,1.73.52,2.76.69,3.46.35-.69.86-1.73,1.73-3.46l3.97-7.78h2.94l-1.73,13.13h-2.25ZM450.4,73.96c0-.69,0-1.21.17-1.73.35-2.76,1.04-4.67,4.84-4.67,2.94,0,3.63,1.21,3.63,2.94,0,.52,0,1.21-.17,1.73-.35,2.94-1.04,4.84-5.01,4.84-2.59,0-3.46-1.21-3.46-3.11ZM457.14,72.24c0-.52.17-1.04.17-1.56,0-1.21-.52-1.9-1.9-1.9-2.07,0-2.42,1.21-2.76,3.46,0,.52-.17,1.04-.17,1.56,0,1.21.52,1.9,1.9,1.9,2.07.17,2.42-1.04,2.76-3.46ZM470.62,76.9l.17-1.21c-.69,1.04-2.07,1.56-3.28,1.38-2.25,0-2.76-1.04-2.76-2.59,0-.69.17-1.56.17-2.25.35-2.59.69-4.49,3.8-4.49,1.21-.17,2.25.52,2.94,1.38l.69-5.18h1.9l-1.9,13.13-1.73-.17ZM471.31,71.37v-.86c0-1.04-.52-1.73-1.9-1.73-2.07,0-2.42,1.04-2.59,3.46-.17.52-.17,1.21-.17,1.73,0,1.21.35,1.73,1.9,1.73,1.21.17,2.42-.69,2.42-1.9h0l.35-2.42ZM481.16,72.58c0,.52-.17.86-.17,1.38,0,1.21.52,1.73,1.9,1.73s2.42-.52,2.59-1.9h1.73c-.35,2.07-1.21,3.11-4.49,3.11s-3.63-1.21-3.63-2.94c0-.69,0-1.21.17-1.9.35-2.76.86-4.67,4.84-4.67,2.94,0,3.63,1.04,3.63,2.76,0,.69,0,1.21-.17,1.9v.52h-6.39ZM485.82,71.72c0-.35.17-.69.17-1.04,0-1.21-.52-1.73-2.07-1.73-1.9,0-2.42,1.04-2.76,2.76h4.67ZM493.08,76.9l1.9-13.13h1.9l-1.9,13.13h-1.9ZM64.51,27.3l-.17.69c-3.46,22.81-4.32,29.55-4.67,33.18-2.42-2.94-7.78-9.33-28.51-33.53l-.35-.35H10.94l-7.43,50.12h15.21l.17-.69c3.28-22.81,4.32-30.07,4.84-34.91,2.76,3.63,8.47,10.2,30.59,35.43l.35.35h17.97l7.43-50.12-15.55-.17ZM123.61,26.61c-17.97,0-25.92,1.38-30.07,5.53-3.97,4.15-4.49,10.54-4.49,13.13,0,10.89,9.5,11.92,26.44,12.96l2.76.17c3.28.17,7.95.52,10.71.69,4.15.35,4.15,1.04,4.15,2.07,0,4.15,0,4.84-15.38,4.84s-16.24-.69-16.24-2.59c0-.69.17-1.38.35-2.07l.52-1.21h-15.9l-.17.69c-.52,2.07-.86,4.15-1.04,6.22,0,8.47,7.26,11.06,30.93,11.06,17.63,0,26.61-1.38,30.59-8.99,1.73-3.46,2.59-7.26,2.59-11.23,0-8.99-8.29-10.89-24.88-11.23-5.01-.17-9.85-.35-13.48-.86-5.53-.69-5.88-1.38-5.88-2.25,0-3.46,0-4.84,16.59-4.84,11.75,0,14,.69,14,1.9,0,.69-.17,1.38-.35,1.9l-.35,1.04h15.21l.17-.69c.69-2.25,1.04-4.49,1.21-6.74-.17-8.12-7.43-9.5-28-9.5ZM217.1,27.3l-2.59,17.97h-35.6l2.59-17.97h-16.24l-7.43,50.12h16.24l2.94-19.7h35.6l-2.94,19.7h16.24l7.43-50.12s-16.24,0-16.24,0ZM306.62,27.3l-26.96,35.77-15.21-35.77h-20.74l-7.43,50.12h15.21l3.28-22.81c.35-2.94.86-6.22,1.38-9.68.86,2.07,1.73,4.32,2.76,6.39l11.41,26.27h14.52l18.49-24.19c2.07-2.59,4.15-5.53,6.22-8.29-.69,3.28-1.04,6.39-1.38,9.33l-3.46,23.16h15.03l7.43-50.12-20.56-.17ZM13.01,14.52l1.73-12.79h-4.15l.17-1.73h10.37l-.17,1.73h-3.97l-1.73,12.62-2.25.17ZM24.94,9.68c0,.52-.17,1.04-.17,1.56,0,1.38.52,1.9,2.25,1.9s2.59-.52,2.76-2.07h1.9c-.35,2.25-1.38,3.46-5.01,3.46-3.28,0-4.15-1.21-4.15-3.28,0-.69,0-1.38.17-2.07.35-2.94,1.04-5.18,5.36-5.18,3.28,0,4.15,1.21,4.15,3.11,0,.69,0,1.38-.17,2.07v.52h-7.09ZM30.12,8.64c0-.35.17-.86.17-1.21,0-1.21-.52-1.9-2.25-1.9-2.25,0-2.59,1.04-2.94,3.11h5.01ZM48.61,14.52l1.73-12.62h-3.97l.17-1.73h10.37l-.17,1.73h-3.97l-1.73,12.62h-2.42ZM65.03,14.52v-1.38c-1.04,1.04-2.42,1.56-3.8,1.56-2.07,0-2.94-.69-2.94-2.42,0-3.11,1.38-4.15,4.32-4.15,1.04,0,2.07.17,3.11.69l.17-1.38v-.69c0-1.21-.69-1.38-2.25-1.38-1.38,0-2.07.17-2.42,1.73v.17h-1.9c.35-2.94,2.59-3.11,4.84-3.11,2.07,0,3.8.35,3.8,2.59v.69l-.69,5.18c0,.52-.17.69-.17,1.04v.69h-2.07v.17ZM65.37,10.02c-.69-.52-1.56-.69-2.42-.52-1.73,0-2.42.35-2.59,1.9v.69c0,1.04.52,1.38,1.9,1.38,1.04,0,2.07-.35,2.76-1.04l.35-2.42ZM79.03,14.52l.17-1.38c-1.04,1.04-2.42,1.56-3.8,1.56-2.25,0-2.76-.69-2.76-1.9v-.69l1.04-7.78h2.07l-1.04,7.26v.52c0,.69.35,1.04,1.9,1.04,2.25,0,2.59-.86,2.94-1.56l.86-7.26h2.07l-1.38,10.02-2.07.17ZM86.98,14.52l1.38-10.02h2.07l-1.38,10.02h-2.07ZM88.7,2.42l.35-2.25h2.07l-.35,2.25h-2.07ZM94.75,14.52l1.38-10.02h2.07l-.17,1.38c.86-1.04,2.25-1.73,3.63-1.56.35,0,.69,0,1.04.17l-.17,1.73c-.52-.17-.86-.17-1.38-.17-1.38-.17-2.94.52-3.46,1.9l-.86,6.74-2.07-.17ZM112.72,14.52v-1.38c-1.04,1.04-2.42,1.56-3.8,1.56-2.07,0-2.94-.69-2.94-2.42,0-3.11,1.38-4.15,4.32-4.15,1.04,0,2.07.17,3.11.69l.17-1.38v-.69c0-1.21-.69-1.38-2.25-1.38s-2.07.17-2.42,1.73v.17h-1.9c.35-2.94,2.59-3.11,4.84-3.11,2.07,0,3.8.35,3.8,2.59v.69l-.69,5.36v1.73h-2.25ZM113.07,10.02c-.69-.52-1.56-.69-2.42-.52-1.73,0-2.42.35-2.59,1.9v.69c0,1.04.52,1.38,1.9,1.38,1.04,0,2.07-.35,2.76-1.04l.35-2.42ZM142.28,14.52l1.21-8.99c.17-1.9.35-2.76.69-4.15l-6.57,13.13h-2.25l-2.59-13.13c-.17,1.38-.35,2.42-.52,4.32l-1.21,8.81h-2.07l2.07-14.34h3.46l1.73,8.64c.35,1.9.52,2.94.69,3.8.35-.86.86-1.9,1.73-3.8L142.97.17h3.28l-2.07,14.34h-1.9ZM156.62,14.52v-1.38c-1.04,1.04-2.42,1.56-3.8,1.56-2.07,0-2.94-.69-2.94-2.42,0-3.11,1.38-4.15,4.32-4.15,1.04,0,2.07.17,3.11.69l.17-1.38v-.69c0-1.21-.69-1.38-2.25-1.38s-2.07.17-2.42,1.73v.17h-1.9c.35-2.94,2.59-3.11,4.84-3.11,2.07,0,3.8.35,3.8,2.59v.69l-.69,5.18v1.73h-2.25v.17ZM156.96,10.02c-.69-.52-1.56-.69-2.42-.52-1.73,0-2.42.35-2.59,1.9v.69c0,1.04.52,1.38,1.9,1.38,1.04,0,2.07-.35,2.76-1.04l.35-2.42ZM169.06,14.34c-.52.17-1.04.17-1.56.17-2.07,0-2.59-.69-2.59-1.73v-.86l.86-6.39h-1.56l.17-1.38h1.56l.52-3.28h2.07l-.52,3.28h2.42l-.17,1.56h-2.42l-.86,6.22v.35c0,.52.17,1.04,1.04,1.04.35,0,.69,0,1.04-.17v1.21ZM180.81,14.52v-1.38c-1.04,1.04-2.42,1.56-3.8,1.56-2.07,0-2.94-.69-2.94-2.42,0-3.11,1.38-4.15,4.32-4.15,1.04,0,2.07.17,3.11.69l.17-1.38v-.69c0-1.21-.69-1.38-2.25-1.38s-2.07.17-2.42,1.73v.17h-1.9c.35-2.94,2.59-3.11,4.84-3.11s3.8.35,3.8,2.59v.69l-.86,5.18c0,.35,0,.69-.17,1.04v.69h-1.9v.17ZM181.16,10.02c-.69-.52-1.56-.69-2.42-.52-1.73,0-2.42.35-2.59,1.9v.69c0,1.04.52,1.38,1.9,1.38,1.04,0,2.07-.35,2.94-1.04l.17-2.42ZM187.55,18.66l2.07-14.34h1.9l-.17,1.38c.86-1.04,2.25-1.73,3.63-1.56,2.42,0,3.11,1.21,3.11,2.94,0,.86-.17,1.73-.17,2.59-.35,2.94-.69,5.01-4.15,5.01-1.21.17-2.42-.52-3.11-1.56l-.69,5.7-2.42-.17ZM190.84,10.54v.86c0,1.21.52,1.73,2.07,1.73,2.25,0,2.59-1.21,2.94-3.8.17-.69.17-1.38.17-1.9,0-1.21-.52-1.9-2.07-1.9-1.38-.17-2.59.86-2.76,2.07h0l-.35,2.94ZM209.5,14.52v-1.38c-1.04,1.04-2.42,1.56-3.8,1.56-2.07,0-2.94-.69-2.94-2.42,0-3.11,1.38-4.15,4.32-4.15,1.04,0,2.07.17,3.11.69l.17-1.38v-.69c0-1.21-.69-1.38-2.25-1.38s-2.07.17-2.42,1.73v.17h-1.9c.35-2.94,2.59-3.11,4.84-3.11,2.07,0,3.8.35,3.8,2.59v.69l-.69,5.36c0,.35-.17.69-.17,1.04,0,.17,0,.52.17.69h-2.25ZM209.84,10.02c-.69-.52-1.56-.69-2.42-.52-1.73,0-2.42.35-2.59,1.9v.69c0,1.04.52,1.38,1.9,1.38,1.04.17,2.07-.35,2.94-1.04l.17-2.42ZM219.18,9.68c0,.52-.17,1.04-.17,1.56,0,1.38.52,1.9,2.25,1.9s2.59-.52,2.76-2.07h1.9c-.35,2.25-1.38,3.46-5.01,3.46-3.28,0-3.97-1.21-3.97-3.28,0-.69,0-1.38.17-2.07.35-2.94,1.04-5.18,5.36-5.18,3.28,0,4.15,1.21,4.15,3.11,0,.69-.17,1.38-.17,2.07v.52h-7.26ZM224.36,8.64c0-.35.17-.86.17-1.21,0-1.21-.52-1.9-2.25-1.9-2.25,0-2.59,1.04-2.94,3.11h5.01ZM239.91,14.52l2.07-14.34h6.91c2.59,0,3.28.86,3.28,2.59,0,.52,0,1.21-.17,1.73l-.17,1.04c-.35,2.76-1.04,4.15-4.67,4.15h-4.32l-.69,4.84h-2.25ZM249.76,4.32c0-.35.17-.69.17-1.21,0-.86-.35-1.56-1.73-1.56h-4.32l-.86,6.22h4.15c1.9,0,2.07-1.04,2.42-2.42l.17-1.04ZM262.38,14.52l.17-1.38c-1.04,1.04-2.42,1.56-3.8,1.56-2.25,0-2.76-.69-2.76-1.9v-.69l1.04-7.78h2.07l-1.04,7.26v.52c0,.69.35,1.04,1.9,1.04,2.25,0,2.59-.86,2.94-1.56l1.04-7.26h2.07l-1.38,10.02-2.25.17ZM258.23,2.42l.17-1.04h7.09l-.17,1.04h-7.09ZM282.43,14.52l1.04-7.43v-.52c0-.69-.35-1.04-1.73-1.04-1.04-.17-2.07.52-2.42,1.38l-1.04,7.43h-2.07l1.04-7.43v-.52c0-.69-.35-1.04-1.73-1.04s-2.07.17-2.42,1.56l-1.04,7.26h-2.07l1.38-10.2h2.07l-.17,1.38c.86-1.04,2.07-1.56,3.46-1.56,1.9,0,2.42.52,2.42,1.56.86-1.04,2.07-1.56,3.46-1.56,1.9,0,2.59.69,2.59,1.73v.69l-1.04,7.78-1.73.52ZM296.77,14.52v-1.38c-1.04,1.04-2.42,1.56-3.8,1.56-2.07,0-2.94-.69-2.94-2.42,0-3.11,1.38-4.15,4.32-4.15,1.04,0,2.07.17,3.11.69l.17-1.38v-.69c0-1.21-.69-1.38-2.25-1.38s-2.07.17-2.42,1.73v.17h-1.9c.35-2.94,2.59-3.11,4.84-3.11,1.9,0,3.8.35,3.8,2.59v.69l-.69,5.36c0,.35-.17.69-.17,1.04,0,.17,0,.52.17.69h-2.25ZM297.11,10.02c-.69-.52-1.56-.69-2.42-.52-1.73,0-2.42.35-2.59,1.9v.69c0,1.04.52,1.38,1.9,1.38,1.04.17,2.07-.35,2.76-1.04l.35-2.42ZM309.04,14.34c-.52.17-1.04.17-1.56.17-2.07,0-2.59-.69-2.59-1.73,0-.35,0-.52.17-.86l.86-6.39h-1.56l.17-1.38h1.56l.52-3.28h2.07l-.52,3.28h2.59l-.17,1.38h-2.42l-.86,6.22v.35c0,.52.17,1.04,1.04,1.04.35,0,.69,0,1.04-.17l-.35,1.38ZM316.47,9.68c0,.52-.17,1.04-.17,1.56,0,1.38.52,1.9,2.25,1.9s2.59-.52,2.76-2.07h1.9c-.35,2.25-1.38,3.46-5.01,3.46-3.28,0-4.15-1.21-4.15-3.28,0-.69,0-1.38.17-2.07.35-2.94,1.04-5.18,5.36-5.18,3.28,0,4.15,1.21,4.15,3.11,0,.69,0,1.38-.17,2.07v.52h-7.09ZM321.65,8.64c0-.35.17-.86.17-1.21,0-1.21-.52-1.9-2.25-1.9-2.25,0-2.59,1.04-2.94,3.11h5.01ZM345.85,14.52v-.52c0-.52,0-1.04.17-1.56l.17-1.56v-.69c0-1.21-.69-1.56-2.94-1.56h-3.11l-.86,5.88h-2.25l2.07-14.34h6.22c2.76,0,4.15.52,4.15,2.76v1.38c-.35,2.42-1.56,3.28-3.46,3.46,1.38.17,2.59.35,2.59,2.07v.69l-.17,1.56c0,.52-.17,1.21-.17,1.73v.52l-2.42.17ZM347.23,4.15v-.69c0-1.21-.52-1.56-2.59-1.56h-3.46l-.69,5.36h3.28c2.59,0,3.11-.69,3.28-2.42l.17-.69ZM360.02,14.52l.17-1.38c-1.04,1.04-2.42,1.56-3.8,1.56-2.25,0-2.76-.69-2.76-1.9v-.69l1.04-7.78h2.07l-1.04,7.26v.52c0,.69.35,1.04,1.9,1.04,2.25,0,2.59-.86,2.94-1.56l1.04-7.26h2.07l-1.56,10.2h-2.07ZM355.87,2.42l.17-1.04h7.09l-.17,1.04h-7.09ZM376.78,14.52l1.38-10.2h2.07l-1.38,10.02-2.07.17ZM378.51,2.42l.35-2.25h2.07l-.35,2.25h-2.07ZM403.05,14.52l-.69-3.46h-6.05l-1.56,3.46h-2.25l6.91-14.52h3.28l2.76,14.52h-2.42ZM401.49,5.36c-.35-1.73-.52-2.59-.69-3.63-.52,1.21-.86,1.9-1.73,3.63l-1.9,3.97h5.01l-.69-3.97ZM409.96,11.23c0-.69,0-1.38.17-2.07.35-2.94,1.21-5.18,5.36-5.18,3.28,0,4.15,1.38,4.15,3.28v1.9c-.35,3.11-1.21,5.36-5.36,5.36-3.46,0-4.32-1.21-4.32-3.28ZM417.39,9.33c.17-.52.17-1.21.17-1.73,0-1.38-.52-2.07-2.25-2.07-2.25,0-2.76,1.21-3.11,3.8-.17.52-.17,1.21-.17,1.73,0,1.38.52,2.07,2.25,2.07,2.25,0,2.76-1.21,3.11-3.8ZM429.14,14.34c-.52.17-1.04.17-1.56.17-2.07,0-2.59-.69-2.59-1.73v-.86l.86-6.39h-1.56l.17-1.38h1.56l.52-3.28h2.07l-.52,3.46h2.42l-.17,1.38h-2.42l-.86,6.22v.35c0,.52.17,1.04,1.04,1.04.35,0,.69,0,1.04-.17v1.21ZM436.57,9.68c0,.52-.17,1.04-.17,1.56,0,1.38.52,1.9,2.25,1.9s2.59-.52,2.76-2.07h1.9c-.35,2.25-1.38,3.46-5.01,3.46s-4.15-1.21-4.15-3.28c0-.69,0-1.38.17-2.07.35-2.94,1.04-5.18,5.36-5.18,3.28,0,4.15,1.21,4.15,3.11,0,.69-.17,1.38-.17,2.07v.52h-7.09ZM441.76,8.64c0-.35.17-.86.17-1.21,0-1.21-.52-1.9-2.25-1.9-2.25,0-2.59,1.04-2.94,3.11h5.01ZM455.24,14.52v-1.38c-1.04,1.04-2.42,1.56-3.8,1.56-2.07,0-2.94-.69-2.94-2.42,0-3.11,1.38-4.15,4.32-4.15,1.04,0,2.07.17,3.11.69l.17-1.38v-.69c0-1.21-.69-1.38-2.25-1.38s-2.07.17-2.42,1.73v.17h-1.9c.35-2.94,2.59-3.11,4.84-3.11,1.9,0,3.8.35,3.8,2.59v.69l-.69,5.36v1.73h-2.25ZM455.58,10.02c-.69-.52-1.56-.69-2.42-.52-1.73,0-2.42.35-2.59,1.9v.69c0,1.04.52,1.38,1.9,1.38,1.04,0,2.07-.35,2.76-1.04l.35-2.42ZM462.67,14.52l1.38-10.02h2.07l-.17,1.38c.86-1.04,2.25-1.73,3.63-1.56.35,0,.69,0,1.04.17l-.17,1.73c-.35-.17-.86-.17-1.38-.17-1.38-.17-2.94.52-3.46,1.9l-.86,6.74-2.07-.17ZM474.07,11.23c0-.69,0-1.38.17-2.07.35-2.94,1.21-5.18,5.36-5.18,3.28,0,4.15,1.38,4.15,3.28,0,.69-.17,1.21-.17,1.9-.35,3.11-1.21,5.36-5.36,5.36-3.28,0-4.15-1.21-4.15-3.28ZM481.5,9.33c.17-.52.17-1.21.17-1.73,0-1.38-.52-2.07-2.25-2.07-2.25,0-2.76,1.21-3.11,3.8,0,.52-.17,1.21-.17,1.73,0,1.38.52,2.07,2.25,2.07,2.25,0,2.76-1.21,3.11-3.8ZM494.98,14.52v-1.38c-1.04,1.04-2.42,1.56-3.8,1.56-2.07,0-2.94-.69-2.94-2.42,0-3.11,1.38-4.15,4.32-4.15,1.04,0,2.07.17,3.11.69l.17-1.38v-.69c0-1.21-.69-1.38-2.25-1.38s-2.07.17-2.42,1.73v.17h-1.9c.35-2.94,2.59-3.11,4.84-3.11,2.07,0,3.8.35,3.8,2.59v.69l-.69,5.36v1.73h-2.25ZM495.33,10.02c-.69-.52-1.56-.69-2.42-.52-1.73,0-2.42.35-2.59,1.9v.69c0,1.04.52,1.38,1.9,1.38,1.04,0,2.07-.35,2.76-1.04l.35-2.42Z"/>
      <rect id="rect835" class="cls-1" x=".22" y="88.65" width="494.24" height=".86"/>
    </g>
  </g>
  <g>
    <path class="cls-1" d="M6.68,102.32l1.29,8.81h-1.38l-.29-2.1h-3.73l-1.18,2.1H0l5.07-8.81h1.6ZM3.18,107.94h2.97l-.57-4.26-2.4,4.26Z"/>
    <path class="cls-1" d="M14.37,104.96l-.19.89c.72-.79,1.63-1.01,2.67-1.01.79,0,1.97.02,1.97,1.08,0,.2-.04.39-.07.58l-.96,4.63h-1.27l.91-4.34c.02-.1.05-.22.05-.34,0-.6-.86-.58-1.28-.58-.89,0-1.61.2-2.12.96l-.89,4.3h-1.27l1.29-6.18h1.16Z"/>
    <path class="cls-1" d="M36.41,102.32l-.37,1.79h-4.33l-.33,1.58h4.22l-.35,1.63h-4.22l-.43,2.06h4.38l-.37,1.76h-6.27l1.83-8.81h6.24Z"/>
    <path class="cls-1" d="M39.76,106.69c.27-1.06.69-1.59,1.79-1.76.5-.08,1.01-.08,1.51-.08.41,0,.81.01,1.22.05.8.08,1.44.27,1.44,1.2,0,.29-.05.58-.1.86l-.63,2.96c-.09.42-.15.81-.15,1.23h-1.63c-.01-.08-.02-.15-.02-.23,0-.14.02-.28.06-.42-.55.7-1.59.75-2.4.75-.87,0-1.95-.02-1.95-1.15,0-.28.05-.56.1-.82.38-1.8,1.23-2.03,2.98-2.03.48,0,1.25.01,1.68.25.07-.31.19-.65.19-.97,0-.48-.8-.42-1.11-.42-.53,0-1.13-.05-1.25.59h-1.72ZM40.88,109.08c-.02.14-.07.28-.07.42,0,.43.62.4.92.4.46,0,1.15-.02,1.51-.36l.21-.96c-.29-.21-.88-.21-1.22-.21-.64,0-1.2-.01-1.35.72Z"/>
    <path class="cls-1" d="M52,104.96l-.14.71c.53-.62,1.37-.83,2.16-.83.28,0,.57.02.85.08l-.36,1.67c-.28-.2-.69-.23-1.01-.23-.62,0-1.27.12-1.67.62-.02.04-.14.2-.15.23l-.81,3.92h-1.82l1.29-6.18h1.67Z"/>
    <path class="cls-1" d="M61.37,103.05l-.41,1.9h1.56l-.28,1.32h-1.56l-.6,2.89c-.01.08-.04.16-.04.24,0,.36.38.37.65.37.21,0,.6,0,.8-.09l-.29,1.38c-.37.13-.8.16-1.2.16-.93,0-1.86-.12-1.86-1.25,0-.28.05-.56.1-.84l.6-2.87h-.75l.28-1.32h.74l.41-1.9h1.83Z"/>
    <path class="cls-1" d="M68.87,102.32l-.71,3.37c.6-.64,1.27-.85,2.15-.85.79,0,2.09.01,2.09,1.09,0,.2-.02.41-.07.6l-.96,4.6h-1.81l.87-4.16c.01-.07.02-.15.02-.22,0-.49-.79-.43-1.11-.43-.51,0-.99.08-1.32.51-.02.02-.14.19-.14.21l-.85,4.09h-1.82l1.83-8.81h1.83Z"/>
    <path class="cls-1" d="M84.28,108.31c-.06.22-.14.45-.14.68,0,.65,1.06.6,1.49.6.81,0,1.47-.09,1.67-.97.03-.14.05-.28.05-.42,0-.31-.22-.43-.48-.55-1.21-.57-3.82-.24-3.82-2.16,0-.28.05-.55.1-.81.09-.45.23-.91.49-1.29.77-1.18,2.39-1.21,3.65-1.21.41,0,.81.01,1.22.06.92.1,1.65.36,1.65,1.42,0,.36-.13.92-.23,1.27h-1.88c.05-.16.12-.39.12-.57,0-.56-.92-.53-1.29-.53-.94,0-1.74.09-1.74,1.21,0,1.49,4.35-.03,4.35,2.57,0,.3-.06.6-.12.89-.1.48-.23.95-.48,1.38-.74,1.29-2.26,1.36-3.59,1.36-.49,0-.99-.01-1.48-.08-.93-.13-1.72-.44-1.72-1.51,0-.44.13-.92.24-1.33h1.93Z"/>
    <path class="cls-1" d="M95.39,107.66c-.07.36-.24,1.08-.24,1.42,0,.67.67.69,1.2.69.67,0,1.25-.01,1.44-.75h1.7c-.09.42-.22.84-.46,1.2-.64.94-1.95,1.03-2.98,1.03-1.29,0-2.78-.1-2.78-1.72,0-.51.12-1.04.22-1.54.13-.57.27-1.16.53-1.68.66-1.3,2.04-1.45,3.37-1.45.7,0,2,.02,2.44.69.14.21.19.46.19.72s-.03.53-.09.8h-1.72c.01-.08.02-.15.02-.23,0-.55-.78-.5-1.15-.5-1.13,0-1.46.26-1.67,1.35Z"/>
    <path class="cls-1" d="M106.4,104.96l-1.29,6.18h-1.83l1.29-6.18h1.83ZM106.96,102.32l-.35,1.66h-1.83l.35-1.66h1.83Z"/>
    <path class="cls-1" d="M116.59,106.52c0,.57-.15,1.37-.34,1.9h-4.49c-.05.21-.09.43-.09.65,0,.69.67.7,1.2.7.56,0,1.27.01,1.44-.64h1.75c-.12.37-.26.75-.49,1.08-.69.93-1.96,1.02-3.02,1.02-1.37,0-2.73-.21-2.73-1.86,0-.48.08-.94.19-1.41.52-2.38,1.4-3.14,3.89-3.14,1.23,0,2.69.14,2.69,1.68ZM111.98,107.41h2.75c.05-.15.06-.33.06-.48,0-.65-.71-.64-1.2-.64-.96,0-1.39.14-1.61,1.11Z"/>
    <path class="cls-1" d="M122.91,104.96l-.15.73c.63-.67,1.38-.85,2.29-.85.8,0,2.1.01,2.1,1.1,0,.2-.02.39-.07.59l-.96,4.6h-1.81l.87-4.16c.01-.08.04-.15.04-.23,0-.46-.82-.42-1.13-.42-.51,0-.99.08-1.32.51-.02.02-.14.19-.14.21l-.85,4.09h-1.82l1.29-6.18h1.67Z"/>
    <path class="cls-1" d="M132.82,107.66c-.07.36-.24,1.08-.24,1.42,0,.67.67.69,1.2.69.67,0,1.25-.01,1.44-.75h1.7c-.09.42-.22.84-.46,1.2-.64.94-1.95,1.03-2.98,1.03-1.29,0-2.78-.1-2.78-1.72,0-.51.12-1.04.22-1.54.13-.57.27-1.16.53-1.68.66-1.3,2.04-1.45,3.37-1.45.7,0,2,.02,2.44.69.14.21.19.46.19.72s-.03.53-.09.8h-1.72c.01-.08.02-.15.02-.23,0-.55-.78-.5-1.15-.5-1.13,0-1.46.26-1.67,1.35Z"/>
    <path class="cls-1" d="M147.76,106.52c0,.57-.15,1.37-.34,1.9h-4.49c-.05.21-.09.43-.09.65,0,.69.67.7,1.2.7.56,0,1.27.01,1.44-.64h1.75c-.12.37-.26.75-.49,1.08-.69.93-1.96,1.02-3.02,1.02-1.37,0-2.73-.21-2.73-1.86,0-.48.08-.94.19-1.41.52-2.38,1.4-3.14,3.89-3.14,1.23,0,2.69.14,2.69,1.68ZM143.15,107.41h2.75c.05-.15.06-.33.06-.48,0-.65-.71-.64-1.2-.64-.96,0-1.39.14-1.61,1.11Z"/>
    <path class="cls-1" d="M152.99,109.21c-.05.09-.08.24-.08.35,0,.48.85.43,1.16.43.58,0,1.27,0,1.27-.74,0-.46-1.18-.55-1.49-.58-.84-.09-2.14-.19-2.14-1.3,0-.2.03-.4.07-.58.37-1.78,1.67-1.94,3.26-1.94.84,0,2.37-.05,2.37,1.14,0,.22-.06.53-.13.74h-1.63c.04-.09.06-.21.06-.31,0-.42-.72-.36-.99-.36-.53,0-1.24-.04-1.24.67,0,.42.57.5.88.57.21.05.43.09.65.13.74.12,2.01.19,2.01,1.22,0,.2-.03.41-.08.6-.38,1.83-1.5,2-3.18,2-.92,0-2.59.05-2.59-1.24,0-.22.06-.58.15-.79h1.66Z"/>
    <path class="cls-1" d="M171.29,102.32l2.26,5.85,1.25-5.85h1.74l-1.85,8.81h-2.33l-2.45-6.33-1.35,6.33h-1.68l1.83-8.81h2.57Z"/>
    <path class="cls-1" d="M186.07,106.52c0,.57-.15,1.37-.34,1.9h-4.49c-.05.21-.09.43-.09.65,0,.69.67.7,1.2.7.56,0,1.27.01,1.44-.64h1.75c-.12.37-.26.75-.49,1.08-.69.93-1.96,1.02-3.02,1.02-1.37,0-2.73-.21-2.73-1.86,0-.48.08-.94.19-1.41.52-2.38,1.4-3.14,3.89-3.14,1.23,0,2.69.14,2.69,1.68ZM181.46,107.41h2.75c.05-.15.06-.33.06-.48,0-.65-.71-.64-1.2-.64-.96,0-1.39.14-1.61,1.11Z"/>
    <path class="cls-1" d="M191.89,104.96v4.47l1.99-4.47h2.24v4.47l1.85-4.47h1.71l-2.75,6.18h-2.19l-.12-4.52-2.06,4.52h-2.21l-.15-6.18h1.7Z"/>
    <path class="cls-1" d="M216.7,102.32l-.33,1.59-5.45,5.52h4.39l-.36,1.71h-6.79l.36-1.72,5.45-5.38h-4.04l.35-1.72h6.42Z"/>
    <path class="cls-1" d="M225.79,106.52c0,.57-.15,1.37-.34,1.9h-4.49c-.05.21-.09.43-.09.65,0,.69.67.7,1.2.7.56,0,1.27.01,1.44-.64h1.75c-.12.37-.26.75-.49,1.08-.69.93-1.96,1.02-3.02,1.02-1.37,0-2.73-.21-2.73-1.86,0-.48.08-.94.19-1.41.52-2.38,1.4-3.14,3.89-3.14,1.23,0,2.69.14,2.69,1.68ZM221.18,107.41h2.75c.05-.15.06-.33.06-.48,0-.65-.71-.64-1.2-.64-.96,0-1.39.14-1.61,1.11Z"/>
    <path class="cls-1" d="M230.08,106.69c.27-1.06.69-1.59,1.79-1.76.5-.08,1.01-.08,1.51-.08.41,0,.81.01,1.22.05.8.08,1.44.27,1.44,1.2,0,.29-.05.58-.1.86l-.63,2.96c-.09.42-.15.81-.15,1.23h-1.63c-.01-.08-.02-.15-.02-.23,0-.14.02-.28.06-.42-.55.7-1.59.75-2.4.75-.87,0-1.95-.02-1.95-1.15,0-.28.05-.56.1-.82.38-1.8,1.23-2.03,2.98-2.03.48,0,1.25.01,1.68.25.07-.31.19-.65.19-.97,0-.48-.8-.42-1.11-.42-.53,0-1.13-.05-1.25.59h-1.72ZM231.2,109.08c-.02.14-.07.28-.07.42,0,.43.62.4.92.4.46,0,1.15-.02,1.51-.36l.21-.96c-.29-.21-.88-.21-1.22-.21-.64,0-1.2-.01-1.35.72Z"/>
    <path class="cls-1" d="M243.03,102.32l-1.85,8.81h-1.82l1.83-8.81h1.83Z"/>
    <path class="cls-1" d="M246.51,106.69c.27-1.06.69-1.59,1.79-1.76.5-.08,1.01-.08,1.51-.08.41,0,.81.01,1.22.05.8.08,1.44.27,1.44,1.2,0,.29-.05.58-.1.86l-.63,2.96c-.09.42-.15.81-.15,1.23h-1.63c-.01-.08-.02-.15-.02-.23,0-.14.02-.28.06-.42-.55.7-1.59.75-2.4.75-.87,0-1.95-.02-1.95-1.15,0-.28.05-.56.1-.82.38-1.8,1.23-2.03,2.98-2.03.48,0,1.25.01,1.68.25.07-.31.19-.65.19-.97,0-.48-.8-.42-1.11-.42-.53,0-1.13-.05-1.25.59h-1.72ZM247.62,109.08c-.02.14-.07.28-.07.42,0,.43.62.4.92.4.46,0,1.15-.02,1.51-.36l.21-.96c-.29-.21-.88-.21-1.22-.21-.64,0-1.2-.01-1.35.72Z"/>
    <path class="cls-1" d="M258.74,104.96l-.15.73c.63-.67,1.38-.85,2.29-.85.8,0,2.1.01,2.1,1.1,0,.2-.02.39-.07.59l-.96,4.6h-1.81l.87-4.16c.01-.08.04-.15.04-.23,0-.46-.82-.42-1.13-.42-.51,0-.99.08-1.32.51-.02.02-.14.19-.14.21l-.85,4.09h-1.82l1.29-6.18h1.67Z"/>
    <path class="cls-1" d="M274.18,102.32l-1.85,8.81h-1.67l.15-.74c-.59.63-1.36.85-2.21.85-1.16,0-2.07-.24-2.07-1.57,0-.59.14-1.18.27-1.75.43-1.99.78-3.08,3.08-3.08.78,0,1.39.12,1.78.85l.7-3.37h1.82ZM268.68,107.52c-.09.43-.28,1.13-.28,1.56,0,.62.49.67,1,.67.62,0,1.09-.09,1.44-.64.02-.04.13-.23.14-.26.02-.12.34-1.59.34-1.62,0-.78-.52-.91-1.2-.91-.95,0-1.25.29-1.44,1.2Z"/>
    <path class="cls-1" d="M286.22,102.32l-1.6,7.61h4.19l-.24,1.21h-5.59l1.83-8.81h1.41Z"/>
    <path class="cls-1" d="M299.08,106.43c0,.58-.14,1.31-.31,1.87h-4.78c-.07.31-.14.64-.14.96,0,.89.81.95,1.53.95.91,0,1.72-.07,1.95-1.08h1.22c-.12.39-.26.8-.5,1.14-.65.87-1.89.96-2.89.96-1.31,0-2.59-.2-2.59-1.78,0-.5.09-1,.2-1.49.51-2.32,1.24-3.14,3.74-3.14,1.17,0,2.58.1,2.58,1.59ZM294.13,107.57h3.58c.06-.29.13-.57.13-.86,0-.85-.91-.85-1.54-.85-1.43,0-1.86.36-2.16,1.71Z"/>
    <path class="cls-1" d="M310.12,102.32l-1.85,8.81h-1.17l.19-.91c-.6.77-1.53,1.01-2.47,1.01-1.17,0-2.03-.29-2.03-1.6,0-.57.14-1.15.26-1.71.43-1.96.8-3.09,3.08-3.09.82,0,1.66.16,2,1.01l.74-3.53h1.27ZM304.35,107.63c-.09.46-.28,1.14-.28,1.61,0,.82.59.96,1.3.96s1.39-.14,1.86-.77c.02-.05.19-.29.2-.33.04-.15.45-2.11.45-2.15,0-.08-.05-.28-.08-.36-.22-.65-.92-.73-1.52-.73-1.32,0-1.68.54-1.93,1.75Z"/>
    <path class="cls-1" d="M324.9,102.32c1.13,0,2.32.12,2.32,1.52,0,.38-.07.73-.15,1.1-.28,1.23-.72,1.89-2.02,2.04.68.08,1.28.24,1.28,1.06,0,.2-.04.38-.07.57-.15.72-.37,1.53-.37,2.28v.24h-1.37c0-.06-.01-.1-.01-.16,0-.7.23-1.56.37-2.23.03-.15.06-.29.06-.44,0-.7-.71-.72-1.24-.72h-2.67l-.73,3.55h-1.35l1.83-8.81h4.12ZM321.25,106.5h2.66c1.03,0,1.53-.34,1.73-1.37.05-.24.12-.51.12-.75,0-.75-.49-.88-1.16-.88h-2.72l-.63,3.01Z"/>
    <path class="cls-1" d="M336.84,106.43c0,.58-.14,1.31-.31,1.87h-4.78c-.07.31-.14.64-.14.96,0,.89.81.95,1.53.95.91,0,1.72-.07,1.95-1.08h1.22c-.12.39-.26.8-.5,1.14-.65.87-1.89.96-2.89.96-1.31,0-2.59-.2-2.59-1.78,0-.5.09-1,.2-1.49.51-2.32,1.24-3.14,3.74-3.14,1.17,0,2.58.1,2.58,1.59ZM331.89,107.57h3.58c.06-.29.13-.57.13-.86,0-.85-.91-.85-1.54-.85-1.43,0-1.86.36-2.16,1.71Z"/>
    <path class="cls-1" d="M341.61,109.21c-.07.15-.1.34-.1.5,0,.7,1.02.65,1.5.65.88,0,1.75-.1,1.75-1.18,0-1.18-3.89-.1-3.89-1.96,0-.17.02-.35.06-.52.36-1.68,1.65-1.85,3.15-1.85.84,0,2.28-.05,2.28,1.13,0,.24-.06.51-.13.75h-1.14c.05-.14.08-.3.08-.45,0-.65-.87-.58-1.31-.58-.82,0-1.75.06-1.75,1.1,0,1.24,3.84.22,3.84,2,0,.19-.03.36-.07.53-.38,1.74-1.49,1.92-3.08,1.92-.89,0-2.5.02-2.5-1.23,0-.24.05-.59.15-.8h1.16Z"/>
    <path class="cls-1" d="M356.48,106.43c0,.58-.14,1.31-.31,1.87h-4.78c-.07.31-.14.64-.14.96,0,.89.81.95,1.53.95.91,0,1.72-.07,1.95-1.08h1.22c-.12.39-.26.8-.5,1.14-.65.87-1.89.96-2.89.96-1.31,0-2.59-.2-2.59-1.78,0-.5.09-1,.2-1.49.51-2.32,1.24-3.14,3.74-3.14,1.17,0,2.58.1,2.58,1.59ZM351.54,107.57h3.58c.06-.29.13-.57.13-.86,0-.85-.91-.85-1.54-.85-1.43,0-1.86.36-2.16,1.71Z"/>
    <path class="cls-1" d="M360.84,106.69c.43-1.81,1.5-1.85,3.13-1.85.4,0,.8.01,1.18.06.75.09,1.38.31,1.38,1.18,0,.28-.05.56-.1.82l-.65,3.09c-.06.3-.13.62-.13.93,0,.07,0,.14.01.21h-1.14c-.01-.07-.01-.14-.01-.21,0-.2.02-.39.07-.58-.63.79-1.71.89-2.65.89-.88,0-1.99-.05-1.99-1.17,0-.27.05-.53.1-.8.08-.37.17-.74.37-1.08.52-.89,1.64-.94,2.57-.94.66,0,1.45.03,2,.45.07-.31.24-.96.24-1.27v-.06c-.01-.13-.02-.22-.09-.33-.24-.34-1.03-.33-1.4-.33-.85,0-1.51,0-1.72.96h-1.18ZM361.37,109.13c-.05.17-.08.35-.08.53,0,.64.78.64,1.24.64.72,0,1.54-.09,2.06-.66l.25-1.17c-.45-.41-1.1-.42-1.68-.42-.99,0-1.54.06-1.79,1.08Z"/>
    <path class="cls-1" d="M372.38,104.96l-.19.91c.63-.75,1.54-1.02,2.5-1.02.29,0,.62.02.89.12l-.24,1.17c-.29-.19-.67-.23-1.01-.23-.94,0-1.73.26-2.26,1.08l-.87,4.16h-1.27l1.29-6.18h1.16Z"/>
    <path class="cls-1" d="M379.92,107.72c-.07.39-.24,1.12-.24,1.49,0,.94.74,1,1.52,1,1.02,0,1.67-.1,1.92-1.18h1.18c-.09.42-.22.86-.46,1.22-.6.92-1.85,1-2.84,1-1.24,0-2.62-.13-2.62-1.67,0-.53.13-1.07.23-1.59.12-.56.24-1.14.49-1.65.63-1.3,1.93-1.49,3.24-1.49.66,0,1.88.02,2.32.64.14.21.19.46.19.72,0,.28-.06.56-.1.84h-1.2c.03-.14.05-.29.05-.44,0-.74-.93-.72-1.46-.72-1.46,0-1.93.45-2.19,1.85Z"/>
    <path class="cls-1" d="M391.25,102.32l-.73,3.53c.7-.77,1.56-1.01,2.58-1.01.79,0,1.96.04,1.96,1.08,0,.2-.04.39-.07.58l-.96,4.63h-1.27l.91-4.34c.02-.1.05-.22.05-.33,0-.62-.85-.59-1.28-.59-.89,0-1.61.2-2.12.96l-.89,4.3h-1.27l1.83-8.81h1.27Z"/>
    <path class="cls-1" d="M410.88,102.32c1.02,0,1.92.13,1.92,1.35,0,.64-.15,1.28-.29,1.9-.42,1.94-.92,2.64-3.02,2.64h-2.87l-.62,2.93h-1.39l1.83-8.81h4.44ZM406.87,107.05h2.78c1.04,0,1.29-.48,1.49-1.41.09-.45.24-.95.24-1.43,0-.6-.38-.71-.92-.71h-2.84l-.74,3.54Z"/>
    <path class="cls-1" d="M417.9,104.96l-.19.91c.63-.75,1.54-1.02,2.5-1.02.29,0,.62.02.89.12l-.24,1.17c-.29-.19-.67-.23-1.01-.23-.94,0-1.73.26-2.26,1.08l-.87,4.16h-1.27l1.29-6.18h1.16Z"/>
    <path class="cls-1" d="M430.47,106.5c0,.49-.1,1-.21,1.47-.5,2.38-1.17,3.26-3.76,3.26-1.3,0-2.61-.19-2.61-1.76,0-.5.1-1.01.21-1.5.5-2.37,1.22-3.14,3.75-3.14,1.23,0,2.62.13,2.62,1.66ZM425.43,107.73c-.1.49-.24.99-.24,1.49,0,.92.79.99,1.53.99,1.5,0,1.92-.51,2.19-1.9.08-.42.24-1.01.24-1.43,0-.94-.74-1-1.53-1-1.51,0-1.9.45-2.19,1.86Z"/>
    <path class="cls-1" d="M439.59,105.84l.19-.88h1.17l-1.34,6.31c-.42,1.99-1.56,2.5-3.5,2.5-.92,0-2.52,0-2.52-1.28,0-.21.02-.48.1-.67h1.21c-.06.1-.07.22-.07.34,0,.65,1.09.59,1.52.59.93,0,1.72-.14,1.94-1.16l.34-1.58c-.62.73-1.49.96-2.42.96-1.1,0-2.08-.2-2.08-1.5,0-.49.1-.99.21-1.46.45-2.02.88-3.16,3.22-3.16.79,0,1.7.19,2.02,1ZM435.68,107.66c-.08.41-.23.99-.23,1.39,0,.82.72.89,1.39.89.71,0,1.41-.17,1.83-.77.04-.05.17-.25.19-.3.04-.14.42-1.9.42-1.94,0-.09-.06-.29-.09-.37-.24-.6-.93-.7-1.5-.7-1.31,0-1.76.57-2.01,1.79Z"/>
    <path class="cls-1" d="M446.49,104.96l-.19.91c.63-.75,1.54-1.02,2.5-1.02.29,0,.62.02.89.12l-.24,1.17c-.29-.19-.67-.23-1.01-.23-.94,0-1.73.26-2.26,1.08l-.87,4.16h-1.27l1.29-6.18h1.16Z"/>
    <path class="cls-1" d="M453.12,106.69c.43-1.81,1.5-1.85,3.13-1.85.4,0,.8.01,1.18.06.75.09,1.38.31,1.38,1.18,0,.28-.05.56-.1.82l-.65,3.09c-.06.3-.13.62-.13.93,0,.07,0,.14.01.21h-1.14c-.01-.07-.01-.14-.01-.21,0-.2.02-.39.07-.58-.63.79-1.71.89-2.65.89-.88,0-1.99-.05-1.99-1.17,0-.27.05-.53.1-.8.08-.37.17-.74.37-1.08.52-.89,1.64-.94,2.57-.94.66,0,1.45.03,2,.45.07-.31.24-.96.24-1.27v-.06c-.01-.13-.02-.22-.09-.33-.24-.34-1.03-.33-1.4-.33-.85,0-1.51,0-1.72.96h-1.18ZM453.65,109.13c-.05.17-.08.35-.08.53,0,.64.78.64,1.24.64.72,0,1.54-.09,2.06-.66l.25-1.17c-.45-.41-1.1-.42-1.68-.42-.99,0-1.54.06-1.79,1.08Z"/>
    <path class="cls-1" d="M464.66,104.96l-.19.89c.64-.77,1.45-1.01,2.43-1.01.71,0,1.6.05,1.64.95.64-.72,1.44-.95,2.39-.95.75,0,1.7.06,1.7,1.02,0,.2-.02.41-.07.6l-.97,4.67h-1.25l.91-4.37c.02-.1.04-.22.04-.34,0-.55-.57-.56-.99-.56-.8,0-1.41.2-1.85.89l-.91,4.37h-1.23l.91-4.37c.02-.12.05-.23.05-.35,0-.54-.59-.54-1-.54-.66,0-1.25.15-1.68.67-.02.04-.19.26-.2.29l-.89,4.3h-1.27l1.29-6.18h1.16Z"/>
    <path class="cls-1" d="M478.39,104.96l-.19.89c.64-.77,1.45-1.01,2.43-1.01.71,0,1.6.05,1.64.95.64-.72,1.44-.95,2.39-.95.75,0,1.7.06,1.7,1.02,0,.2-.02.41-.07.6l-.97,4.67h-1.25l.91-4.37c.02-.1.04-.22.04-.34,0-.55-.57-.56-.99-.56-.8,0-1.41.2-1.85.89l-.91,4.37h-1.23l.91-4.37c.02-.12.05-.23.05-.35,0-.54-.59-.54-1-.54-.66,0-1.25.15-1.68.67-.02.04-.19.26-.2.29l-.89,4.3h-1.27l1.29-6.18h1.16Z"/>
    <path class="cls-1" d="M496.48,106.43c0,.58-.14,1.31-.31,1.87h-4.78c-.07.31-.14.64-.14.96,0,.89.81.95,1.53.95.91,0,1.72-.07,1.95-1.08h1.22c-.12.39-.26.8-.5,1.14-.65.87-1.89.96-2.89.96-1.31,0-2.59-.2-2.59-1.78,0-.5.09-1,.2-1.49.51-2.32,1.24-3.14,3.74-3.14,1.17,0,2.58.1,2.58,1.59ZM491.53,107.57h3.58c.06-.29.13-.57.13-.86,0-.85-.91-.85-1.54-.85-1.43,0-1.86.36-2.16,1.71Z"/>
  </g>
</svg>